# xmcd CD database file
#
# Track frame offsets:
#	150
#	9340
#	22020
#	31982
#	43007
#	52795
#	63690
#	73912
#	82760
#	94305
#
# Disc length: 1411 seconds
#
# Revision: 0
# Processed by: cddbd v1.5PL3 Copyright (c) Steve Scherf et al.
# Submitted via: CDex 1.50
#
DISCID=7b05810a
DTITLE=Roger Miller - Roger Miller
DYEAR=1972
DGENRE=Country
TTITLE0=You Don't Want My Love
TTITLE1=Hitch-Hiker
TTITLE2=Every Which-A-Way
TTITLE3=Sorry, Willie
TTITLE4=Fair Swiss Maiden
TTITLE5=Hey Little Star
TTITLE6=When Two Worlds Collide
TTITLE7=Trouble On The Turnpike
TTITLE8=Lock, Stock and Teardrops
TTITLE9=Footprints In The Snow
EXTD=YEAR: 1972
EXTT0=
EXTT1=
EXTT2=
EXTT3=
EXTT4=
EXTT5=
EXTT6=
EXTT7=
EXTT8=
EXTT9=
PLAYORDER=
